:SAMPLES-PER-SECOND 30
:FRAME-RANGE 1-2091
:FULLY-SPECIFIED
:DEGREES
1307
root  98.6816 38.9843 -49.3777 179.176 -37.457 178.556
RightUpLeg  -20.1523 -9.69188 -9.38069
RightLeg  49.8086 -5.2467 -6.95834
RightFoot  -2.22717 -1.26543 15.5954
RightToes  5.82063e-011 0 -3.6325e-017
Spine  8.90899 0.30167 -5.66496
Spine1  -0.504257 1.2415 -8.50868
HEad  12.8047 -16.8278 -3.25281
LeftShoulder1  1.26451 0.00324384 -30.0543
LeftArm  16.4392 12.2243 -29.1974
LeftForeArm  1.8252 -27.0328 -5.72256
LeftHand  0.415304 -1.76562 -6.60172
RightShoulder  5.02104 14.6971 21.2293
RightArm  -7.84006 16.1265 3.90711
RightForeArm  19.3155 48.5167 11.2584
RightHand  0.931803 0.77943 17.3824
LeftUpLeg  -9.29013 4.60408 -7.11894
LeftLeg  15.9976 9.84333 -0.500678
LeftFoot  -6.08973 -0.40659 9.64294
LeftToes  -6.27584e-011 -2.25241e-010 2.80627e-011
1308
root  98.8012 39.222 -50.0104 179.984 -41.9866 178.717
RightUpLeg  -18.0358 -6.88152 -10.3546
RightLeg  36.6265 -6.39982 -5.33299
RightFoot  -3.06154 -1.20167 16.2113
RightToes  5.82063e-011 0 -3.6325e-017
Spine  8.87283 -0.0325604 -5.38339
Spine1  -0.552119 0.98343 -8.09345
HEad  12.4181 -20.9832 -3.24995
LeftShoulder1  1.34295 -0.227412 -29.9247
LeftArm  14.5126 11.1566 -28.6137
LeftForeArm  3.46307 -28.3688 -5.95053
LeftHand  0.421864 -1.85541 -6.61631
RightShoulder  4.23634 13.6655 18.1065
RightArm  -7.53133 16.235 3.28333
RightForeArm  19.9376 47.2368 10.6783
RightHand  1.05629 1.73472 16.9612
LeftUpLeg  -8.14353 4.46424 -6.25949
LeftLeg  13.3421 5.34514 -2.07351
LeftFoot  -5.09376 -0.464052 9.04656
LeftToes  -6.27584e-011 -2.25241e-010 2.80627e-011
1309
root  98.8836 39.375 -50.6818 -179.06 -46.2366 178.29
RightUpLeg  -14.7102 -1.01709 -11.9156
RightLeg  22.7493 -7.4422 -3.61979
RightFoot  -3.23647 -1.19814 16.4925
RightToes  5.82063e-011 0 -3.6325e-017
Spine  8.51806 -0.550143 -4.80682
Spine1  -0.05445 0.740332 -8.717
HEad  11.3536 -24.6211 -3.11352
LeftShoulder1  1.3366 -0.286088 -29.1887
LeftArm  12.4832 10.7967 -27.769
LeftForeArm  4.8602 -29.6605 -6.18702
LeftHand  0.389435 -1.79856 -6.1502
RightShoulder  3.71063 13.3277 15.2453
RightArm  -6.01375 15.8168 2.77583
RightForeArm  20.7926 45.9366 10.1042
RightHand  1.09095 2.05633 16.7335
LeftUpLeg  -7.05523 4.28006 -5.83561
LeftLeg  11.3653 1.32115 -2.9709
LeftFoot  -4.46332 -0.474891 8.33528
LeftToes  -6.27584e-011 -2.25241e-010 2.80627e-011
1310
root  98.9379 39.4205 -51.4029 -177.708 -49.9834 176.9
RightUpLeg  -11.3824 6.85324 -13.7039
RightLeg  11.383 -4.99494 -2.14642
RightFoot  -3.08977 -1.21618 16.461
RightToes  5.82063e-011 0 -3.6325e-017
Spine  8.19494 -0.744593 -5.06035
Spine1  0.524893 0.680275 -9.06164
HEad  9.9801 -28.1897 -3.29599
LeftShoulder1  1.35414 -0.378139 -28.7977
LeftArm  11.1415 10.5308 -26.2868
LeftForeArm  5.47591 -30.2002 -6.286
LeftHand  0.331698 -1.6955 -5.30257
RightShoulder  3.20648 13.1107 12.2202
RightArm  -2.44987 15.2461 2.80437
RightForeArm  22.7181 44.1764 9.31952
RightHand  1.34326 3.84178 16.4977
LeftUpLeg  -6.16602 3.91934 -5.96855
LeftLeg  10.5995 -1.93108 -3.35006
LeftFoot  -4.49907 -0.427024 7.58582
LeftToes  -6.27584e-011 -2.25241e-010 2.80627e-011
1311
root  98.9661 39.4658 -52.0996 -176.203 -53.1889 174.99
RightUpLeg  -8.96632 2.76904 -12.3554
RightLeg  5.16033 7.93488 -3.98003
RightFoot  -1.39478 -1.46149 16.5777
RightToes  5.82063e-011 0 -3.6325e-017
Spine  8.29309 -0.830069 -4.79888
Spine1  1.01723 0.781026 -9.76053
HEad  8.53304 -31.6446 -3.55235
LeftShoulder1  1.35122 -0.412574 -28.4081
LeftArm  10.4412 10.2468 -24.2801
LeftForeArm  5.06852 -30.1077 -6.28562
LeftHand  0.279647 -1.47032 -4.61656
RightShoulder  2.81534 13.2214 9.47507
RightArm  3.30397 13.8045 3.19134
RightForeArm  22.8463 42.9555 8.88785
RightHand  1.22377 3.28685 16.0224
LeftUpLeg  -5.04509 3.34317 -6.30272
LeftLeg  9.91569 -4.49659 -3.46163
LeftFoot  -4.67007 -0.359656 6.64672
LeftToes  -6.27584e-011 -2.25241e-010 2.80627e-011
1312
root  99.0473 39.4672 -52.7747 -174.705 -55.8654 173.287
RightUpLeg  -8.84273 5.85614 -12.9872
RightLeg  7.7223 3.13823 -3.65577
RightFoot  -3.3238 -1.23369 17.159
RightToes  5.82063e-011 0 -3.6325e-017
Spine  8.89213 -0.850244 -3.56843
Spine1  1.15884 1.11383 -11.3482
HEad  6.88263 -35.0234 -3.51983
LeftShoulder1  1.34871 -0.416199 -28.3098
LeftArm  10.443 9.51443 -21.7408
LeftForeArm  3.8662 -29.1795 -6.124
LeftHand  0.239339 -1.47958 -3.92607
RightShoulder  2.5624 13.6 7.39813
RightArm  10.0024 12.4416 4.19211
RightForeArm  25.6092 40.5249 7.91876
RightHand  1.1461 3.32167 14.9409
LeftUpLeg  -4.88064 2.7487 -6.34358
LeftLeg  10.6497 -6.60475 -3.49418
LeftFoot  -5.47149 -0.225964 5.04795
LeftToes  -6.27584e-011 -2.25241e-010 2.80627e-011
1313
root  99.155 39.4866 -53.356 -174.09 -57.9055 173.143
RightUpLeg  -9.55621 5.56224 -12.5982
RightLeg  9.89538 1.36443 -2.68538
RightFoot  -3.22079 -1.06571 14.6285
RightToes  5.82063e-011 0 -3.6325e-017
Spine  9.66733 -0.972205 -0.948919
Spine1  1.09086 1.53477 -13.182
HEad  4.80353 -37.8927 -3.27096
LeftShoulder1  1.28513 -0.174501 -28.8513
LeftArm  10.1114 8.94972 -18.9017
LeftForeArm  2.19638 -28.2494 -5.99002
LeftHand  0.206071 -1.14171 -3.5711
RightShoulder  2.4455 14.1473 6.127
RightArm  16.7979 10.8685 5.03975
RightForeArm  27.6436 38.1519 7.08688
RightHand  1.14542 3.685 14.3108
LeftUpLeg  -5.7049 2.02179 -5.76123
LeftLeg  12.1308 -8.03339 -3.02723
LeftFoot  -6.57758 -0.106144 3.50368
LeftToes  -6.27584e-011 -2.25241e-010 2.80627e-011
1314
root  99.2079 39.4457 -53.9226 -173.697 -60.6898 173.558
RightUpLeg  -9.94067 2.75124 -11.8989
RightLeg  11.5569 1.47642 -1.66063
RightFoot  -4.50651 -0.883624 14.2126
RightToes  5.82063e-011 0 -3.6325e-017
Spine  10.0281 -1.26998 1.06472
Spine1  1.03978 1.39251 -13.2109
HEad  2.79045 -40.1964 -3.73189
LeftShoulder1  1.2417 -0.0111435 -29.245
LeftArm  9.28857 10.0903 -17.1355
LeftForeArm  1.20106 -27.5048 -5.86617
LeftHand  0.168109 -0.89142 -3.03565
RightShoulder  2.26618 14.074 5.04179
RightArm  23.4262 9.51762 5.77479
RightForeArm  28.956 35.8702 6.37977
RightHand  0.984454 4.092 11.7275
LeftUpLeg  -7.38198 0.901716 -4.91897
LeftLeg  14.7903 -9.56727 -2.65294
LeftFoot  -8.21834 -0.000267111 1.82346
LeftToes  -6.27584e-011 -2.25241e-010 2.80627e-011
1315
root  99.2437 39.3913 -54.4548 -173.942 -63.8214 174.65
RightUpLeg  -9.83743 -2.22968 -10.6344
RightLeg  12.4059 3.53171 -0.809495
RightFoot  -5.89301 -0.720594 14.229
RightToes  5.82063e-011 0 -3.6325e-017
Spine  10.4273 -1.41081 2.4951
Spine1  0.852049 1.04859 -11.5779
HEad  1.11057 -42.706 -3.93173
LeftShoulder1  1.16571 0.178568 -28.9673
LeftArm  8.94466 12.1266 -16.4628
LeftForeArm  0.167759 -27.1449 -5.8359
LeftHand  0.132008 -0.331182 -2.66267
RightShoulder  2.06536 12.9698 4.64636
RightArm  25.9575 7.00114 5.65438
RightForeArm  30.7782 37.9932 6.84988
RightHand  0.826747 3.79337 10.157
LeftUpLeg  -9.37476 0.0871434 -3.32771
LeftLeg  17.4978 -7.59231 -2.32473
LeftFoot  -9.95842 0.060641 -0.0687264
LeftToes  -6.27584e-011 -2.25241e-010 2.80627e-011
1316
root  99.2688 39.3221 -54.9735 -175.15 -66.317 176.777
RightUpLeg  -10.0707 -4.07446 -9.10529
RightLeg  13.419 3.03462 -0.351578
RightFoot  -7.12808 -0.566942 14.0226
RightToes  5.82063e-011 0 -3.6325e-017
Spine  11.0284 -1.37199 3.91808
Spine1  0.117096 0.977976 -10.6363
HEad  -0.550505 -45.041 -3.03587
LeftShoulder1  1.07871 0.381823 -28.4488
LeftArm  8.89586 15.0386 -15.8291
LeftForeArm  -0.163131 -27.6419 -5.97048
LeftHand  0.118855 -0.0209715 -2.5702
RightShoulder  1.9379 11.2814 5.29778
RightArm  26.979 5.06312 5.50082
RightForeArm  32.6481 39.8661 7.27287
RightHand  0.64134 3.41484 8.19546
LeftUpLeg  -12.2094 4.5993 -1.53519
LeftLeg  20.7867 -3.59786 -1.1776
LeftFoot  -11.8094 0.0541919 -4.0576
LeftToes  -6.27584e-011 -2.25241e-010 2.80627e-011
1317
root  99.2589 39.3224 -55.437 -174.698 -68.4824 177.339
RightUpLeg  -10.4845 -5.16103 -8.28408
RightLeg  13.9436 1.96145 -0.255573
RightFoot  -7.94218 -0.466184 13.8198
RightToes  5.82063e-011 0 -3.6325e-017
Spine  10.7795 -1.46788 3.99355
Spine1  0.216562 0.730335 -9.88954
HEad  -2.61468 -46.4774 -1.11205
LeftShoulder1  1.00915 0.586253 -28.4838
LeftArm  9.43338 18.0433 -14.8958
LeftForeArm  -1.14171 -27.5135 -5.99129
LeftHand  0.128136 -0.118737 -2.70959
RightShoulder  1.98087 10.0636 6.98707
RightArm  26.3231 3.67301 5.39987
RightForeArm  32.5405 41.1571 7.66765
RightHand  0.526719 2.99117 7.06372
LeftUpLeg  -15.1537 9.84136 -1.17515
LeftLeg  23.0819 -0.277959 0.205062
LeftFoot  -10.6551 0.0949625 -5.19642
LeftToes  -6.27584e-011 -2.25241e-010 2.80627e-011
1318
root  99.2272 39.3967 -55.7924 -172.736 -71.2501 176.103
RightUpLeg  -10.233 -6.78309 -8.16543
RightLeg  13.6313 0.744626 -0.361759
RightFoot  -8.29617 -0.419086 13.5755
RightToes  5.82063e-011 0 -3.6325e-017
Spine  10.7284 -1.74479 3.28782
Spine1  0.422527 0.16837 -8.78464
HEad  -4.44188 -47.9282 0.727249
LeftShoulder1  0.999285 0.621178 -28.5619
LeftArm  11.2492 20.4361 -14.9174
LeftForeArm  -3.44135 -25.9598 -5.74632
LeftHand  0.139528 -0.0503733 -2.99737
RightShoulder  2.0574 8.94406 9.15631
RightArm  24.1808 1.76513 5.18087
RightForeArm  31.3216 42.4855 8.16415
RightHand  0.513273 2.47781 7.37145
LeftUpLeg  -17.9654 12.2204 -1.8039
LeftLeg  25.3044 2.82406 1.79396
LeftFoot  -11.3812 0.0664723 -4.91326
LeftToes  -6.27584e-011 -2.25241e-010 2.80627e-011
1319
root  99.1617 39.482 -56.0466 -169.716 -74.2213 173.816
RightUpLeg  -9.79248 -8.85605 -8.44139
RightLeg  12.9725 -0.249703 -0.202951
RightFoot  -8.4624 -0.394672 13.3497
RightToes  5.82063e-011 0 -3.6325e-017
Spine  10.9324 -1.84014 2.94717
Spine1  0.0783547 -0.189505 -7.84557
HEad  -5.38279 -49.9498 1.81325
LeftShoulder1  1.01874 0.572235 -28.6492
LeftArm  14.6921 21.9594 -15.6628
LeftForeArm  -6.86529 -23.8422 -5.43623
LeftHand  0.147926 0.102337 -3.29001
RightShoulder  1.98824 7.05395 11.7339
RightArm  22.3946 -0.242715 5.1952
RightForeArm  30.5525 43.5578 8.56794
RightHand  0.362614 2.13224 5.42152
LeftUpLeg  -20.7243 13.4277 -2.60711
LeftLeg  27.1809 3.24652 2.15061
LeftFoot  -11.7627 0.0501244 -5.52388
LeftToes  -6.27584e-011 -2.25241e-010 2.80627e-011
